<svg xmlns="http://www.w3.org/2000/svg" width="440" height="196" viewBox="0 0 440 196"><defs><linearGradient id="cband" x1="0" x2="0" y1="0" y2="1"><stop offset="0" stop-color="#8b7d71"/><stop offset="1" stop-color="#7c6f64"/></linearGradient><linearGradient id="cbevel" x1="0" x2="0" y1="0" y2="1"><stop offset="0" stop-color="#fbf7f0" stop-opacity="0.18"/><stop offset="0.1" stop-color="#fbf7f0" stop-opacity="0"/><stop offset="0.85" stop-color="#000" stop-opacity="0"/><stop offset="1" stop-color="#000" stop-opacity="0.12"/></linearGradient><linearGradient id="cink" x1="0" x2="0" y1="0" y2="1"><stop offset="0" stop-color="#36312d"/><stop offset="1" stop-color="#2a2623"/></linearGradient><linearGradient id="clip" x1="0" x2="0" y1="0" y2="1"><stop offset="0" stop-color="#1c1917"/><stop offset="1" stop-color="#141210"/></linearGradient><linearGradient id="cpaper" x1="0" x2="0" y1="0" y2="1"><stop offset="0" stop-color="#ffffff"/><stop offset="1" stop-color="#fbf7f0"/></linearGradient><linearGradient id="cbeak" x1="0" x2="0" y1="0" y2="1"><stop offset="0" stop-color="#f27a22"/><stop offset="1" stop-color="#c1550a"/></linearGradient><filter id="cshade" x="-30%" y="-30%" width="160%" height="170%"><feDropShadow dx="0" dy="3" stdDeviation="4" flood-color="#1c1917" flood-opacity="0.28"/></filter></defs><path d="M164.27 99.33L220 39.57L275.73 99.33Z" fill="#4a433d" stroke="#4a433d" stroke-width="6.6" stroke-linejoin="round"/><rect x="187" y="66.26" width="66" height="66.73" rx="5" fill="#ffffff" filter="url(#cshade)"/><rect x="222.64" y="74.26" width="19.8" height="4" rx="2" fill="#d9cfc2" /><rect x="222.64" y="82.26" width="13.2" height="4" rx="2" fill="#d9cfc2" /><circle cx="206.8" cy="80.26" r="10.56" fill="#1c7f4f"/><path d="M202.05 80.47L205.74 84.27L211.87 76.56" fill="none" stroke="#ffffff" stroke-width="2.75" stroke-linecap="round" stroke-linejoin="round"/><path d="M168.67 100.56H271.33A14.67 14.67 0 0 1 286 115.22V181.22A14.67 14.67 0 0 1 271.33 195.89H168.67A14.67 14.67 0 0 1 154 181.22V115.22A14.67 14.67 0 0 1 168.67 100.56Z" fill="url(#clip)"/><path d="M168.67 92H271.33A14.67 14.67 0 0 1 286 106.67V172.67A14.67 14.67 0 0 1 271.33 187.33H168.67A14.67 14.67 0 0 1 154 172.67V106.67A14.67 14.67 0 0 1 168.67 92Z" fill="url(#cink)"/><path d="M168.67 92.8H271.33" stroke="#fbf7f0" stroke-opacity="0.16" stroke-width="1.2" stroke-linecap="round"/><path d="M163.77 102.26H276.23V170.71A6.85 6.85 0 0 1 269.38 177.57H170.62A6.85 6.85 0 0 1 163.77 170.71Z" fill="url(#cpaper)" stroke="url(#cpaper)" stroke-width="2.64" stroke-linejoin="round"/><path d="M187 157.82Q193.6 147 200.2 157.82" fill="none" stroke="#2a2623" stroke-width="5.02" stroke-linecap="round"/><path d="M239.8 157.82Q246.4 147 253 157.82" fill="none" stroke="#2a2623" stroke-width="5.02" stroke-linecap="round"/><path d="M212.96 150.15H227.04Q228.58 150.15 226.86 151.8L221.37 162.78Q220 164.16 218.63 162.78L213.14 151.8Q211.42 150.15 212.96 150.15Z" fill="url(#cbeak)"/><path d="M430 150Q420 50 264 62" fill="none" stroke="#fbf7f0" stroke-width="2.2" stroke-linecap="round" stroke-dasharray="2 6" opacity="0.45"/></svg>