<svg xmlns="http://www.w3.org/2000/svg" xmlns:xlink="http://www.w3.org/1999/xlink" width="128" height="128" viewBox="0 0 128 128"><defs><linearGradient id="cink" gradientUnits="userSpaceOnUse" x1="0" y1="22" x2="0" y2="100"><stop offset="0" stop-color="#4a443e"/><stop offset="1" stop-color="#2a2623"/></linearGradient><linearGradient id="cpaper" gradientUnits="userSpaceOnUse" x1="0" y1="30" x2="0" y2="96"><stop offset="0" stop-color="#ffffff"/><stop offset="1" stop-color="#fbf7f0"/></linearGradient><linearGradient id="clip" gradientUnits="userSpaceOnUse" x1="0" y1="90" x2="0" y2="108"><stop offset="0" stop-color="#1c1917"/><stop offset="1" stop-color="#141210"/></linearGradient><linearGradient id="cbeak" gradientUnits="userSpaceOnUse" x1="0" y1="72" x2="0" y2="86"><stop offset="0" stop-color="#f27a22"/><stop offset="1" stop-color="#c1550a"/></linearGradient></defs><path d="M22 29H106A12 12 0 0 1 118 41V95A12 12 0 0 1 106 107H22A12 12 0 0 1 10 95V41A12 12 0 0 1 22 29Z" fill="url(#clip)"/><path d="M22 22H106A12 12 0 0 1 118 34V88A12 12 0 0 1 106 100H22A12 12 0 0 1 10 88V34A12 12 0 0 1 22 22Z" fill="url(#cink)"/><path d="M17.99 30.39L64 65.68L110.01 30.39V86.4A5.61 5.61 0 0 1 104.4 92.01H23.6A5.61 5.61 0 0 1 17.99 86.4Z" fill="url(#cpaper)" stroke="url(#cpaper)" stroke-width="2.16" stroke-linejoin="round"/><circle cx="42.4" cy="73.48" r="4.32" fill="#2a2623"/><circle cx="85.6" cy="73.48" r="4.32" fill="#2a2623"/><path d="M58.24 69.58H69.76Q71.02 69.58 69.62 70.93L65.12 79.91Q64 81.04 62.88 79.91L58.38 70.93Q56.98 69.58 58.24 69.58Z" fill="url(#cbeak)"/></svg>