<svg xmlns="http://www.w3.org/2000/svg" width="16" height="16" viewBox="0 0 16 16"><path fill="#222" d="M8 0.8 c0.9 1 1.3 1.8 1.3 2.4 a1.3 1.3 0 0 1 -2.6 0 c0 -0.6 0.4 -1.4 1.3 -2.4 z"/><path fill="#222" d="M7.3 5 h1.4 v2 h-1.4 z"/><path fill="#222" fill-rule="evenodd" d="M3.2 7.3 h9.6 a1 1 0 0 1 1 1 v2.2 h-11.6 v-2.2 a1 1 0 0 1 1 -1 z M3.8 8.9 v0.1 c0.9 0.8 1.8 0.8 2.7 0 c0.9 0.8 2.1 0.8 3 0 c0.9 0.8 1.8 0.8 2.7 0 v-0.1 z"/><path fill="#222" d="M2.2 11.4 h11.6 v2.8 a0.8 0.8 0 0 1 -0.8 0.8 h-10 a0.8 0.8 0 0 1 -0.8 -0.8 z"/></svg>
