<svg xmlns="http://www.w3.org/2000/svg" width="16" height="16" viewBox="0 0 16 16"><path fill="#222" fill-rule="evenodd" d="M2.7 2.7 h10.6 a0.9 0.9 0 0 1 0.9 0.9 v9.8 a0.9 0.9 0 0 1 -0.9 0.9 h-10.6 a0.9 0.9 0 0 1 -0.9 -0.9 v-9.8 a0.9 0.9 0 0 1 0.9 -0.9 z M3.3 4.3 v8.4 h9.4 v-8.4 z"/><path fill="#222" d="M3 5.7 h10 v1.6 h-10 z"/><path fill="#222" d="M5.5 1.2 a0.8 0.8 0 0 1 0.8 0.8 v2.5 h-1.6 v-2.5 a0.8 0.8 0 0 1 0.8 -0.8 z"/><path fill="#222" d="M10.5 1.2 a0.8 0.8 0 0 1 0.8 0.8 v2.5 h-1.6 v-2.5 a0.8 0.8 0 0 1 0.8 -0.8 z"/></svg>
